# xmcd CD database file
#
# Track frame offsets:
#	150
#	14430
#	27045
#	40037
#	54855
#	81737
#	96165
#	111262
#	125012
#	138582
#	149460
#	160722
#
# Disc length: 2334 seconds
#
# Revision: 0
# Processed by: cddbd v1.5.1PL0 Copyright (c) Steve Scherf et al.
# Submitted via: CDex 1.51
#
DISCID=a1091c0c
DTITLE=Count Basie - Tribune Collection
DYEAR=1900
DGENRE=Jazz
TTITLE0=jumpin at the woodside
TTITLE1=singin for your supper
TTITLE2=panassié stomp
TTITLE3=oh lady be good
TTITLE4=cherokee
TTITLE5=texas shuffle
TTITLE6=evil blues
TTITLE7=london bridge
TTITLE8=my heart belongs to daddy
TTITLE9=moten swing
TTITLE10=louisiana
TTITLE11=thursday
EXTD=
EXTT0=
EXTT1=
EXTT2=
EXTT3=
EXTT4=
EXTT5=
EXTT6=
EXTT7=
EXTT8=
EXTT9=
EXTT10=
EXTT11=
PLAYORDER=
